<?xml version="1.0" encoding="UTF-8"?>
<svg width="10.5in" height="5.25in" version="1.1" xmlns="http://www.w3.org/2000/svg" xmlns:cc="http://creativecommons.org/ns#" xmlns:dc="http://purl.org/dc/elements/1.1/" xmlns:rdf="http://www.w3.org/1999/02/22-rdf-syntax-ns#">
  <metadata>
    <rdf:RDF>
      <cc:Work rdf:about="">
        <dc:format>image/svg+xml</dc:format>
        <dc:type rdf:resource="http://purl.org/dc/dcmitype/StillImage"/>
        <dc:title>10 days to travel and compete</dc:title>
      </cc:Work>
    </rdf:RDF>
  </metadata>
  <g transform="translate(-8.6232 9.4791)">
    <g fill="#d40000">
      <g stroke="#f00">
        <path d="m421.41 237.2v-52.66l31.027 0.0257c34.065 0.0285 39.614 0.32452 44.642 2.3832 9.3053 3.8095 16.541 14.031 20.565 29.052 1.3335 4.9772 1.3169 30.325-0.0235 35.872-3.6957 15.294-12.238 27.455-23.217 33.054-9.3244 4.7553-7.2824 4.5246-41.967 4.7404l-31.027 0.19305v-52.66zm50.396 19.002c1.4792-0.6151 3.4842-2.1055 4.4558-3.312 3.196-3.969 3.9743-6.8111 3.9743-14.512 0-8.4512-1.0186-11.549-4.8231-14.668l-2.5899-2.123h-14.109v36.579l5.201-0.42309c2.8606-0.2327 6.4113-0.92634 7.8904-1.5414z" stroke-width=".64951"/>
        <path d="m516.22 291.53c0.15364-0.74328 5.2055-24.088 11.226-51.877 6.0209-27.789 10.947-50.851 10.947-51.25 0-0.68109 1.7814-0.72495 29.422-0.72495 16.182 0 29.421 0.15215 29.421 0.33811 0 0.18599 2.6324 12.676 5.8499 27.756 3.2174 15.08 8.1262 38.177 10.909 51.328 2.7823 13.15 5.1762 24.331 5.3198 24.845l0.261 0.9356h-37.338l-1.2021-6.6532-1.2022-6.6532h-11.843c-6.5135 0-11.843 0.0895-11.843 0.19888 0 0.32131-2.0292 10.713-2.3363 11.964l-0.28063 1.1435h-37.59zm56.689-41.411 2.3046-0.27544-3.3145-15.264c-1.823-8.3954-3.4531-15.132-3.6225-14.97-0.16936 0.16214-1.8391 6.844-3.7104 14.849-1.8714 8.0046-3.5193 14.881-3.6621 15.281-0.23534 0.65975 0.20545 0.72429 4.7204 0.69127 2.739-0.02 6.017-0.16037 7.2845-0.31186z" stroke-width=".45927"/>
        <path d="m638.96 277.83v-15.046l-15.472-37.1c-8.5094-20.405-15.472-37.305-15.472-37.555 0-0.32211 5.9865-0.45512 20.483-0.45512h20.483l4.4435 14.658c2.4439 8.0617 4.6403 14.835 4.8809 15.053 0.24053 0.21727 0.43738 0.24565 0.43738 0.0632 0-1.3256 7.8733-29.215 8.3153-29.455 0.82699-0.44965 38.746-0.39049 39.087 0.061 0.15731 0.20857-1.1925 3.9042-2.9995 8.2125s-8.6816 20.838-15.277 36.733l-11.991 28.9-0.26467 15.489-0.26466 15.489h-36.388v-15.046z" stroke-width=".45927"/>
        <path d="m727.64 294.43c-3.259-0.41841-9.5364-1.5594-13.95-2.5357l-8.0244-1.7749v-14.967c0-13.914 0.1249-14.928 1.7754-14.406 3.5501 1.1226 24.269 4.4401 30.955 4.9565 9.4053 0.72641 12.944-1.1893 10.835-5.8645-0.68347-1.5143-1.9141-1.7687-10.755-2.2232-13.637-0.70103-20.106-2.4145-25.297-6.7003-6.5276-5.3898-8.7576-11.213-9.3095-24.31-0.75246-17.853 3.8487-29.077 14.344-34.991 8.3018-4.6778 14.165-5.6974 32.091-5.5807 13.046 0.085 17.281 0.43922 24.856 2.0791l9.1309 1.9767 0.71605 7.9006c0.39371 4.3453 0.45504 11.481 0.13611 15.856l-0.57984 7.9558-9.267-1.4854c-10.833-1.7365-30.034-2.0602-31.891-0.53771-1.3972 1.1454-1.5745 3.9061-0.35226 5.4856 0.55841 0.72156 4.997 1.3031 13.427 1.7593 14.721 0.79653 18.447 1.8708 23.598 6.8041 5.7519 5.5085 7.2693 10.673 7.1851 24.456-0.0619 10.012-0.39072 12.312-2.3509 16.415-4.5869 9.6011-12.697 16.861-21.191 18.97-4.9619 1.2321-28.541 1.7298-36.082 0.76167z" stroke-width=".91855"/>
        <g stroke-width=".32476">
          <path d="m804.92 291.5c-2.7014-2.2145-1.9883-9.0001 2.0257-19.272 0.60501-1.5485 1.1778-2.9814 1.2728-3.1843 0.11051-0.23602-0.15488-0.36887-0.73685-0.36887-1.1946 0-2.0368-0.72337-2.0368-1.7492 0-0.97916 0.36896-1.265 2.5108-1.9456 0.88778-0.28207 1.9171-0.72388 2.2875-0.9818 0.37035-0.25792 1.8445-2.4537 3.276-4.8794 2.6463-4.4846 3.659-5.6479 4.646-5.3374 0.9855 0.30999 0.64256 2.4683-0.86304 5.4326-0.86165 1.6964-1.2079 2.6833-0.90816 2.5891 1.5529-0.48848 3.6066-0.79393 4.3332-0.64446 1.0331 0.21253 1.7051 1.1754 1.4352 2.0566-0.20779 0.67857-0.50219 0.8095-5.7219 2.5444-3.6952 1.2282-4.107 1.7837-6.8779 9.277-2.4302 6.5722-3.3494 11.742-2.2482 12.645 1.1747 0.96298 2.193-0.0194 5.6674-5.4677 1.5016-2.3546 2.1487-3.1004 2.6902-3.1004 0.59712 0 0.69483 0.16736 0.60128 1.0291-0.28277 2.6017-3.7066 8.2613-6.3591 10.512-2.1228 1.8008-3.5371 2.0405-4.9941 0.84613z"/>
          <path d="m793.13 335.22v-22.346h23.674v9.1149h-16.141v9.115h16.141v8.8209h-16.141v8.8209h16.141v8.8209h-23.674z"/>
          <path d="m831.15 340.07v-17.495h-10.402v-9.703h28.695v9.703h-4.6337c-2.5485 0-4.889 0.0803-5.2011 0.17847-0.50848 0.15995-0.56725 1.9758-0.56725 17.495v17.316h-7.8913z"/>
          <path d="m818.72 291.76c-1.6275-1.4201-1.3665-7.2225 0.54966-12.223 3.096-8.0787 9.057-14.052 12.044-12.07 0.72992 0.48443 0.85686 0.86803 0.97131 2.934 0.15808 2.8533-0.32459 5.3834-1.7569 9.2103-2.1924 5.8578-5.5441 11.261-7.6326 12.305-1.5854 0.79246-3.1547 0.73342-4.1754-0.15709zm4.2637-4.169c0.46507-0.26703 1.4063-1.4804 2.0916-2.6963 0.98144-1.7413 1.2061-2.4556 1.0575-3.3638-0.14453-0.88285 0.0651-1.6118 0.89579-3.1108 3.2461-5.86 3.2982-8.7985 0.10347-5.8222-2.951 2.7491-6.2165 9.5106-6.338 13.123-0.08 2.3962 0.46357 2.8608 2.1898 1.8697z"/>
          <path d="m853.75 335.22v-22.346h23.674v9.1149h-16.141v9.115h16.141v8.8209h-16.141v8.8209h16.141v8.8209h-23.674z"/>
        </g>
        <path d="m445.69 340.53v-17.465h-10.145v-10.811h29.422v10.811h-10.145v34.929h-9.1308z" stroke-width=".91855"/>
        <g stroke-width=".32476">
          <path d="m468.96 335.25v-22.538l8.6983 0.17223c9.9198 0.19642 11.684 0.47194 13.723 2.1434 0.68894 0.56478 1.6965 1.7171 2.239 2.5607 0.98311 1.5288 0.98641 1.5538 0.98641 7.5614 0 5.7736-0.0362 6.0834-0.8503 7.3508-1.8325 2.8514-4.4664 4.842-6.99 5.2825-0.91952 0.16054-1.1091 0.32471-1.03 0.89178 0.0532 0.38226 2.5984 4.7925 5.6556 9.8005 3.0573 5.008 5.4884 9.1631 5.4025 9.2336-0.086 0.0704-2.3163 0.0342-4.9564-0.0804l-4.8001-0.20852-5.0036-8.8223-5.0036-8.8223-0.0948 9.0059-0.0948 9.0059h-7.8809v-22.538zm16.514-3.8302c1.6534-1.453 2.2988-3.1827 1.9907-5.3356-0.30368-2.1219-1.0774-3.5292-2.1188-3.8538-0.47614-0.14843-2.5823-0.36411-4.6804-0.47931l-3.8145-0.20945v11.322l3.626-0.11939 3.626-0.11939z"/>
          <path d="m498.82 357.58c-1.0141-0.16012-1.0109-0.37114 0.0718-4.6771 0.48336-1.9224 2.9021-11.62 5.3749-21.549 2.473-9.9297 4.5754-18.119 4.6722-18.198 0.27626-0.22651 11.219-0.23162 11.498-5e-3 0.42293 0.34301 11.066 44.04 10.783 44.272-0.14617 0.11991-1.9063 0.21802-3.9114 0.21802h-3.6456l-1.3771-5.2926c-0.75733-2.9109-1.5278-5.4208-1.712-5.5776-0.30615-0.26053-12.136-0.65987-12.175-0.41101-0.01 0.0594-0.62187 2.5545-1.3608 5.5447l-1.3437 5.4367-1.419 0.20647c-1.5299 0.2226-4.1526 0.2384-5.4544 0.0328zm20.004-20.448c0.0183-1.0453-4.119-16.366-4.3315-16.04-0.29893 0.45863-2.1808 7.495-3.3435 12.502-0.58025 2.4984-0.71382 3.6326-0.43877 3.7257 0.21743 0.0736 2.1305 0.14426 4.2513 0.15703 2.8576 0.0172 3.8576-0.072 3.8624-0.34432z"/>
          <path d="m540.18 357.46c-0.0937-0.22385-1.8035-7.0227-3.7996-15.109-1.9961-8.0858-4.4277-17.874-5.4035-21.752-0.9759-3.8778-1.6934-7.2232-1.5947-7.4343 0.13585-0.29017 1.1184-0.36345 4.0267-0.30031l3.8471 0.0835 0.42015 1.7642c0.23111 0.97031 1.9222 8.2122 3.758 16.093 1.8358 7.881 3.3884 14.288 3.4503 14.237 0.17359-0.14229 2.0254-7.7287 4.9578-20.31 1.5891-6.8177 2.8531-11.541 3.1267-11.683 0.62224-0.32367 7.3616-0.31405 7.6065 0.0108 0.19247 0.25533-10.774 44.123-11.096 44.387-0.0915 0.075-2.183 0.20003-4.6477 0.27786-3.6101 0.114-4.5145 0.0624-4.6517-0.26549z"/>
          <path d="m564.37 335.29v-22.493h23.674v9.115h-16.5v9.1149h16.5v8.8209h-16.5v9.1149h16.5v8.8209h-23.674z"/>
          <path d="m594.14 335.29v-22.493h7.5325v35.578h13.272v9.409h-20.804z"/>
          <path d="m630.89 343.72c-1.3825-0.52824-3.0432-1.9621-4.1413-3.5755-0.35631-0.52346-0.50033-1.8354-0.50033-4.5575 0-3.397 0.0896-3.9596 0.80407-5.0555 0.97152-1.4899 2.9741-3.1353 4.4088-3.6224 2.927-0.99384 6.9938 1.6004 8.0286 5.1215 0.43687 1.4865 0.2608 6.2192-0.27924 7.504-1.5415 3.6677-5.0529 5.434-8.3207 4.1854z"/>
          <path d="m663.49 358.14c-7.4802-2.194-11.586-10.665-11.575-23.878 6e-3 -7.1338 0.98627-11.632 3.428-15.737 1.6152-2.7153 3.6024-4.3935 6.5648-5.5442 2.074-0.8056 2.738-0.91789 5.413-0.91523 2.6604 3e-3 3.3167 0.11379 5.1519 0.87256 1.314 0.54334 2.8279 1.5262 4.0353 2.6199l1.9323 1.7503-0.0114 5.757c-0.0127 6.3379 0.10485 6.1776-2.1407 2.9234-2.5186-3.6501-7.2669-5.1937-10.949-3.5593-2.0093 0.89198-4.4076 4.1837-5.1502 7.069-0.22059 0.85698-0.39893 3.4371-0.39633 5.7336 9e-3 7.8559 1.9947 12.608 5.872 14.051 3.989 1.4849 7.8724-0.10951 11.09-4.5532l1.5055-2.079 0.11058 3.6708c0.0608 2.019 7e-3 4.3776-0.11964 5.2414-0.21179 1.4455-0.42047 1.7281-2.6214 3.5499-1.3152 1.0886-3.1367 2.2707-4.0477 2.6268-2.354 0.92018-5.7474 1.0878-8.0932 0.39973z"/>
          <path d="m694.76 358.4c-5.3447-1.182-9.3862-5.4178-11.252-11.793-1.3102-4.4766-1.5824-7.074-1.3816-13.18 0.27525-8.3643 1.5438-13.216 4.3667-16.701 2.9238-3.6097 8.2806-5.3341 14.141-4.5522 6.5904 0.87936 10.3 4.8878 12.139 13.116 0.71977 3.2216 0.80648 12.85 0.14947 16.613-1.4826 8.492-5.3231 14.225-10.617 15.849-2.3303 0.71471-5.8709 1.0192-7.5451 0.64898zm4.9824-8.9674c3.487-1.1943 5.1875-4.9264 5.7754-12.676 0.43643-5.7538-0.72807-10.947-2.9372-13.1-1.3253-1.2911-2.6607-1.749-5.1002-1.749-1.91 0-2.3056 0.10656-3.4484 0.92913-2.9376 2.1143-4.099 5.5602-4.1082 12.19-7e-3 4.7737 0.60882 8.5906 1.7315 10.738 1.7589 3.3636 4.8633 4.7714 8.087 3.6672z"/>
          <path d="m718.25 335.29v-22.493h5.3119c3.6956 0 5.4913 0.11183 5.9018 0.36754 0.43585 0.27155 1.113 2.7866 2.5926 9.6295 3.0194 13.964 4.1244 18.845 4.5601 20.141 0.36132 1.0754 0.66265-0.14036 3.5186-14.195 1.7178-8.4541 3.2397-15.467 3.382-15.584 0.14225-0.11692 2.9088-0.25704 6.1479-0.31139l5.8893-0.0988v45.037h-7.5326l-6e-3 -12.57c0-6.9134-0.11279-13.298-0.24681-14.187l-0.24364-1.6172-0.60179 2.3522c-0.33104 1.2937-1.8333 7.314-3.3384 13.378-1.5051 6.0644-2.8212 11.324-2.9245 11.688-0.18068 0.63596-0.33864 0.66156-4.0809 0.66156h-3.8929l-2.2436-9.4825c-1.2339-5.2154-2.7719-11.6-3.4178-14.187l-1.1743-4.7045-0.0354 14.334-0.0354 14.334h-7.5326v-22.493z"/>
          <path d="m761.29 335.25v-22.533l9.057 0.14234c8.3466 0.13117 9.201 0.1935 10.893 0.79468 4.8003 1.7057 7.0702 6.0722 7.044 13.551-0.0277 7.9305-2.6719 13.097-7.7427 15.131-1.8923 0.75893-6.0143 1.3278-9.6561 1.3325l-1.7038 2e-3v14.113h-7.8912v-22.533zm16.175-0.87821c1.8677-0.89416 2.9918-2.9908 3.1286-5.8359 0.10133-2.112 0.0107-2.5312-0.89675-3.978-0.58539-0.93706-1.3874-1.757-1.907-1.9496-0.49322-0.18286-2.632-0.41858-4.7527-0.52384l-3.8559-0.19137v13.329l3.5468-0.14c2.6284-0.10379 3.8547-0.28753 4.737-0.70987z"/>
          <path d="m478.88 409.32c-0.86889-0.0738-1.315-0.24489-1.2128-0.46511 0.19623-0.42285 10.321-25.974 13.101-33.062l1.9904-5.0749 16.676 0.0764 16.675 0.0764 7.7317 19.021c4.2525 10.462 7.6014 19.128 7.4422 19.259-0.15921 0.13071-5.1989 0.28235-11.199 0.33698-8.8716 0.0807-10.94 0.0257-11.072-0.29404-0.0891-0.21635-0.59267-1.5511-1.1192-2.9661l-0.95727-2.5728h-14.95l-0.72883 2.0061c-0.40089 1.1034-0.83143 2.4265-0.95677 2.9403l-0.22793 0.93423-9.9089-0.0494c-5.4498-0.0271-10.527-0.10197-11.283-0.1662zm34.796-16.075c-0.16396-0.35018-1.9887-5.5764-4.0615-11.632-0.63193-1.8464-0.89299-1.6764-1.5641 1.0186-0.34915 1.4025-2.4425 7.7935-3.443 10.512-0.17366 0.47186 0.2026 0.51457 4.5361 0.51457 3.9088 0 4.6922-0.0714 4.5324-0.4127z"/>
          <path d="m565.81 410.28c-0.29595-0.0603-1.9907-0.26913-3.7663-0.46418-3.7294-0.40972-8.0236-1.4455-10.273-2.4779-3.2872-1.5088-5.7466-4.2755-6.4506-7.2564-0.20577-0.87102-0.45637-7.7943-0.55999-15.47l-0.18765-13.893h21.955v27.042l1.0484 0.96023c1.0309 0.94418 1.0996 0.9601 4.1094 0.95001 2.7242-9e-3 3.1613-0.0875 3.9733-0.7128l0.91236-0.7026v-6.0499c4.5e-4 -3.3274 0.10704-9.5231 0.23693-13.768l0.23617-7.7183h22.376l-0.14775 12.129c-0.1798 14.76-0.38303 17.17-1.6368 19.415-2.3656 4.2357-7.1641 6.5726-15.506 7.5517-2.5576 0.30017-15.342 0.66476-16.321 0.46545z"/>
          <path d="m625.35 409.94c-3.5182-0.14851-15.49-0.99079-16.41-1.1545-0.79755-0.14196-0.80705-0.20133-0.80705-5.028v-4.8844l1.3451 0.18788c2.1596 0.30172 18.398 0.58673 20.274 0.35587 2.7505-0.33858 3.8519-1.7301 2.4737-3.1253-0.61364-0.62116-1.049-0.68194-6.5461-0.91355-6.8283-0.28766-11.626-0.89476-13.602-1.721-4.3592-1.823-6.4023-5.8215-6.0038-11.75 0.51331-7.6363 5.6524-10.726 19.05-11.452 5.603-0.30382 15.226-7e-3 22.466 0.69209 6.0815 0.58748 5.8164 0.26905 5.6718 6.8114-0.0614 2.7866-0.21293 5.149-0.3363 5.2497-0.1233 0.10069-1.2532 0.0429-2.5109-0.12853-1.2575-0.17135-5.7569-0.39352-9.9985-0.4937-10.64-0.25127-12.554 0.11369-12.554 2.3935 0 0.59571 0.27283 0.86286 1.2085 1.1833 1.2396 0.42457 2.0871 0.50568 10.907 1.0439 7.9318 0.48401 10.628 1.2666 12.646 3.6709 2.0251 2.4127 2.6943 7.5731 1.4351 11.066-0.96702 2.6827-4.1268 5.287-7.7707 6.4046-3.5682 1.0943-13.975 1.8855-20.936 1.5916z"/>
          <path d="m672.7 396.89v-12.643h-14.706v-13.525h51.652v13.525h-15.065v25.287h-21.88z"/>
          <path d="m715.74 390.09v-19.444l21.253 0.16221c12.726 0.0972 22.255 0.2925 23.752 0.48698 4.7345 0.61516 8.1837 2.5877 10.08 5.7644 0.76416 1.2804 0.8911 1.9082 0.90219 4.4618 0.0192 4.5754-1.0815 7.0098-4.068 8.9928-2.15 1.4275-3.5182 1.9388-7.1322 2.6655l-3.1659 0.6366 4.3539 3.963c2.3946 2.1797 6.1254 5.617 8.2908 7.6384l3.9371 3.6754-1.9302 0.19144c-1.0616 0.10528-6.6157 0.20453-12.342 0.22054l-10.412 0.0291-5.6938-6.1746c-3.1316-3.396-5.7751-6.1746-5.8744-6.1746-0.0994 0-0.0689 2.7786 0.0677 6.1746l0.24845 6.1746h-22.266v-19.444zm32.046-1.5217c1.4407-0.7738 2.145-1.864 2.1189-3.2796-0.0501-2.7043-1.2227-3.2576-7.5485-3.561l-4.3778-0.2099v7.7991l4.432-0.12096c3.4065-0.0929 4.6503-0.23819 5.3754-0.62764z"/>
          <path d="m776.99 409.32c-0.73984-0.0634-1.3451-0.22735-1.3451-0.36427 0-0.27685 7.3381-18.928 12.063-30.662l3.0492-7.5713 16.566 3e-3 16.566 3e-3 7.8496 19.119c4.3173 10.515 7.7341 19.214 7.5926 19.33-0.14144 0.11603-5.2197 0.25659-11.285 0.31239l-11.028 0.10144-1.0457-2.9682-1.0456-2.9682h-15.164l-0.42325 1.3966c-0.23275 0.76816-0.66688 2.0913-0.9648 2.9403l-0.54155 1.5436-9.7489-0.0494c-5.3619-0.0271-10.354-0.10133-11.094-0.16477zm34.527-15.884c0-0.12127-0.87552-2.8006-1.9496-5.9541-1.0741-3.1535-2.0472-6.0975-2.1624-6.5422-0.35755-1.3812-0.78453-0.90274-1.4436 1.6172-0.34901 1.3342-1.26 4.2471-2.0247 6.4732-0.76459 2.2261-1.3903 4.1777-1.3903 4.337 0 0.17454 1.7805 0.28951 4.4836 0.28951 2.4661 0 4.4852-0.0993 4.487-0.22054z"/>
          <path d="m844.87 390.13v-19.406h22.598v26.463h17.935v12.349h-40.532z"/>
          <path d="m890.78 390.13v-19.406h22.239v38.812h-22.239z"/>
          <path d="m919.93 409.32c-0.64118-0.0653-1.1658-0.24097-1.1658-0.39052 0-0.24299 3.7447-9.7644 12.194-31.005l2.8072-7.0567 16.621-0.0724 16.621-0.0724 7.8572 19.037c4.3214 10.471 7.9301 19.203 8.0192 19.405 0.1276 0.28913-2.2821 0.36753-11.296 0.36753h-11.458l-1.0579-2.8668-1.0579-2.8668-7.5484-0.0792-7.5483-0.0793-0.56811 1.6964c-0.31243 0.93301-0.74944 2.2587-0.97131 2.946l-0.4032 1.2496-9.9398-0.047c-5.467-0.0257-10.465-0.10048-11.106-0.16562zm34.703-15.928c0-0.1447-0.31413-1.104-0.69802-2.1317-0.384-1.0278-1.3627-3.8534-2.1747-6.2791-0.81216-2.4258-1.603-4.5157-1.7573-4.6444-0.15445-0.12865-0.56778 0.86372-0.91861 2.2052-0.35093 1.3415-1.2636 4.2605-2.0283 6.4866-0.76469 2.2261-1.3903 4.1777-1.3903 4.337 0 0.17454 1.7805 0.28951 4.4836 0.28951 2.466 0 4.4836-0.1184 4.4836-0.26306z"/>
          <path d="m925.66 358.37c-1.9777-0.33989-4.4849-1.4658-6.6638-2.9924l-1.7295-1.2119 0.12149-4.3413c0.0672-2.3877 0.23232-4.432 0.3679-4.5428 0.13557-0.11085 1.2344 0.66423 2.442 1.7224 2.6649 2.3352 5.122 3.4301 7.6943 3.4286 3.4174-2e-3 5.2204-1.6788 5.2204-4.8548 0-2.8731-0.76139-3.6029-6.1788-5.9221-7.5135-3.2166-9.8637-5.6856-10.342-10.865-0.53739-5.8249 0.43808-9.8917 3.0784-12.833 4.301-4.7912 12.483-5.3368 18.088-1.2061l1.8108 1.3346v1.9852c0 1.0919-0.10347 3.3768-0.23072 5.0776l-0.23094 3.0923-1.4898-1.5029c-3.6038-3.6354-9.645-4.8115-12.017-2.3395-1.5942 1.6614-1.7428 4.6413-0.30602 6.1386 0.38218 0.39827 2.613 1.5258 4.9574 2.5055 7.9914 3.3398 9.8144 5.4762 10.274 12.04 0.2799 3.9984-0.28864 6.7651-1.949 9.4857-2.7773 4.5507-7.5973 6.7156-12.917 5.8015z"/>
          <path d="m946.02 335.29v-22.493h23.674v9.115h-16.5v9.1149h16.5v8.8209h-16.5v9.1149h16.5v8.8209h-23.674z"/>
          <path d="m975.43 335.29v-22.493h24.032v9.115h-16.5v9.1149h16.5v8.8209h-16.5v9.1149h16.5v8.8209h-24.032z"/>
        </g>
      </g>
      <path d="m926.14 358.1c-1.8957-0.26923-4.0974-1.1761-6.4901-2.6733l-1.8831-1.1784v-3.7626c0-2.0694 0.10027-3.9773 0.22325-4.2397 0.17728-0.37861 0.6784-0.11886 2.4285 1.2586 1.2127 0.95465 2.8475 2.0007 3.6325 2.3245 5.5399 2.2848 10.065-0.2911 9.2808-5.2828-0.30101-1.9153-1.5832-3.012-5.7276-4.8999-8.9645-4.0834-10.566-6.0777-10.64-13.249-0.0597-5.7947 1.0643-8.7518 4.3514-11.446 2.1518-1.7639 4.3936-2.4894 7.7603-2.5115 3.3848-0.0222 5.0032 0.46016 8.2017 2.4445l2.1144 1.3118-0.23125 3.5246c-0.12715 1.9386-0.23126 4.0245-0.23126 4.6354v1.1108l-1.8831-1.539c-5.9782-4.8858-13.089-3.7471-12.923 2.0695 0.0597 2.0809 0.6464 2.7593 3.5934 4.1538 1.3337 0.63105 3.5548 1.6836 4.9357 2.339 4.9731 2.3603 6.7038 4.5211 7.3604 9.1893 0.83413 5.9298-0.62859 10.449-4.4563 13.768-2.5215 2.1862-5.9343 3.1478-9.4165 2.6533z" stroke="#d40000" stroke-width=".32476"/>
      <path d="m896.8 343.63c-1.3825-0.52825-3.0432-1.9621-4.1413-3.5756-0.35616-0.52346-0.50027-1.8354-0.50027-4.5575 0-3.397 0.0896-3.9596 0.80406-5.0555 0.97152-1.4899 2.9742-3.1353 4.4088-3.6224 2.927-0.99385 6.9938 1.6004 8.0286 5.1215 0.4369 1.4865 0.2608 6.2192-0.27915 7.504-1.5416 3.6678-5.0529 5.434-8.3208 4.1854z" stroke="#f00" stroke-width=".32476"/>
    </g>
    <path d="m193.76 405.36c-63.547-13.498-118.58-52.946-142.79-102.35-12.47-25.447-15.95-43.61-14.414-75.238 0.92381-19.021 2.7302-28.822 7.7071-41.818 21.096-55.084 73.442-98.22 138.84-114.41 25.484-6.3085 80.543-5.715 108.22 1.1666 38.52 9.578 74.121 29.501 99.058 55.435 12.577 13.081 31.15 38.88 31.15 43.27 0 1.5653-2.7279 4.0889-6.062 5.608l-6.062 2.762v114.07h7.2744c9.6947 0 9.2956 3.3953-2.5541 21.729-26.851 41.544-69.968 72.132-119.9 85.056-22.122 5.7263-82.385 8.5548-100.46 4.7152z" fill="#000080" stroke-width="2.4248"/>
    <g transform="matrix(.96875 0 0 1.1489 12.608 -1.9172)" fill="#989ea4" stroke-opacity="0" style="font-feature-settings:normal;font-variant-caps:normal;font-variant-ligatures:normal;font-variant-numeric:normal" aria-label="10">
      <path d="m195.37 126.21h-27.693l-41.093 20.993 7.1466 23.673 29.033-15.186h0.44666v139.36h32.159z" style="font-feature-settings:normal;font-variant-caps:normal;font-variant-ligatures:normal;font-variant-numeric:normal"/>
      <path d="m299.27 297.5c35.509 0 56.279-31.936 56.279-87.769 0-46.899-15.41-86.205-55.162-86.205-37.966 0-56.949 36.179-56.949 87.545 0 47.123 16.526 86.429 55.832 86.429zm0.22333-26.13c-14.74 0-23.003-20.993-23.003-60.969 0-40.199 9.1565-60.746 23.45-60.746 15.633 0 22.556 22.556 22.556 60.746 0 39.529-7.5932 60.969-22.78 60.969z" style="font-feature-settings:normal;font-variant-caps:normal;font-variant-ligatures:normal;font-variant-numeric:normal"/>
    </g>
    <g transform="matrix(.96133 0 0 1.1578 -11.078 101.17)" fill="#989ea4" stroke-opacity="0" style="font-feature-settings:normal;font-variant-caps:normal;font-variant-ligatures:normal;font-variant-numeric:normal" aria-label="10">
      <path d="m319.98 207.92c35.247 0 55.863-31.7 55.863-87.119 0-46.552-15.296-85.568-54.754-85.568-37.685 0-56.528 35.912-56.528 86.898 0 46.774 16.404 85.789 55.419 85.789zm0.22168-25.936c-14.631 0-22.833-20.838-22.833-60.518 0-39.902 9.0888-60.296 23.276-60.296 15.517 0 22.389 22.389 22.389 60.296 0 39.237-7.537 60.518-22.611 60.518zm-103.36-144.09h-27.488l-40.789 20.838 7.0937 23.498 28.818-15.074h0.44335v138.33h31.922z" fill="#fff" stroke-opacity="0" style="font-feature-settings:normal;font-variant-caps:normal;font-variant-ligatures:normal;font-variant-numeric:normal"/>
    </g>
  </g>
</svg>
